# xmcd CD database file
#
# Track frame offsets:
#	150
#	19053
#	36214
#	53995
#	78589
#	94963
#	105764
#	123984
#	144621
#	164485
#
# Disc length: 2511 seconds
#
# Revision: 0
# Processed by: cddbd v1.5.2PL0 Copyright (c) Steve Scherf et al.
# Submitted via: CDex 1.70beta2
#
DISCID=7f09cd0a
DTITLE=The big 18/2 - Swing Collectionq
DYEAR=1958
DGENRE=Jazz
TTITLE0=Summit Ridge Drive
TTITLE1=Parade of the Milk Bottle Caps
TTITLE2=Swingtime in the Rockies
TTITLE3=Feet Draggin' Blues
TTITLE4=Okay for Baby
TTITLE5=Quaker Cizty Jazz
TTITLE6=Celery Stalks at Midnight
TTITLE7=Skyliner
TTITLE8=Organ Grinder's Swing
TTITLE9=Ton O'Rock Bump
EXTD=YEAR: 1958
EXTT0=
EXTT1=
EXTT2=
EXTT3=
EXTT4=
EXTT5=
EXTT6=
EXTT7=
EXTT8=
EXTT9=
PLAYORDER=
